<svg id="Capa_1" enable-background="new 0 0 512 512" height="512" viewBox="0 0 512 512" width="512" xmlns="http://www.w3.org/2000/svg"><g><path d="m171.761 270.488c0-8.213 6.682-14.896 14.895-14.896s14.895 6.682 14.895 14.896h30c0-24.755-20.14-44.896-44.895-44.896s-44.895 20.14-44.895 44.896z"/><path d="m322.156 255.593c8.213 0 14.895 6.682 14.895 14.896h30c0-24.755-20.14-44.896-44.895-44.896s-44.895 20.14-44.895 44.896h30c0-8.214 6.682-14.896 14.895-14.896z"/><path d="m149.532 50.056h30v50.388h-30z"/><path d="m209.782 50.056h30v50.388h-30z"/><path d="m270.032 50.056h30v50.388h-30z"/><path d="m330.282 50.056h30v50.388h-30z"/><path d="m422.719 120.375h60.25v-90.25h-60.25v-30.125h-335.625v150.5h13.978c-14.353 25.61-22.036 54.37-22.34 83.931h-4.581c-24.879 0-45.12 20.241-45.12 45.12v47.163c0 24.879 20.241 45.12 45.12 45.12h15.537c6.043 36.728 24.081 70.346 51.678 95.801 31.02 28.609 71.342 44.365 113.54 44.365s82.521-15.756 113.539-44.366c27.597-25.455 45.636-59.073 51.678-95.801h15.537c24.879 0 45.12-20.241 45.12-45.12v-47.163c0-24.879-20.241-45.12-45.12-45.12h-4.581c-.304-29.561-7.987-58.32-22.34-83.931h13.978v-30.124zm30.25-60.25v30.25h-30.25v-30.25zm-335.875-30.125h275.625v90.5h-275.625zm-58.063 296.713v-47.163c0-8.337 6.783-15.12 15.12-15.12h6.263l6.263 77.402h-12.526c-8.337.001-15.12-6.782-15.12-15.119zm391.75-47.162v47.163c0 8.337-6.783 15.12-15.12 15.12h-12.526l6.263-77.402h6.263c8.338-.001 15.12 6.781 15.12 15.119zm-50.169-31.33-8.69 107.403c-2.793 34.525-18.354 66.473-43.816 89.958-25.462 23.484-58.561 36.418-93.2 36.418s-67.737-12.934-93.199-36.418c-25.461-23.485-41.022-55.433-43.816-89.958l-8.69-107.402c-2.836-35.058 6.884-69.485 27.45-97.721h236.51c20.567 28.235 30.287 62.663 27.451 97.72z"/><path d="m201.259 358.398-27.206 12.644c10.955 23.572 34.829 38.803 60.822 38.803h40.062c25.993 0 49.867-15.231 60.822-38.803l-27.206-12.644c-6.055 13.028-19.25 21.447-33.616 21.447h-40.062c-14.366 0-27.561-8.419-33.616-21.447z"/></g></svg>