<svg id="Layer_1" enable-background="new 0 0 512 512" viewBox="0 0 512 512" xmlns="http://www.w3.org/2000/svg"><g><path d="m397.054 182.307h29.972v31.039h-29.972z"/><path d="m512 246.198c0-16.084-5.012-31.454-14.495-44.446l-10.733-14.706c-3.099-82.688-86.893-143.879-165.359-143.879-60.876 0-118.944 35.753-142.514 92.575l-59.919-32.973 82.216-45.243-14.454-26.247-98.836 54.39-13.065-7.189c9.241-8.237 15.075-20.217 15.075-33.538 0-24.782-20.168-44.942-44.958-44.942s-44.958 20.16-44.958 44.941c0 17.01 9.503 31.409 23.94 39.728l32.891 18.1-32.891 18.1c-14.437 8.319-23.94 22.718-23.94 39.728 0 24.781 20.168 44.941 44.958 44.941s44.958-20.16 44.958-44.941c0-13.321-5.834-25.301-15.075-33.538l13.065-7.19 82.308 45.294c-5.578 30.482-1.339 62.525 12.947 91.766 14.673 30.059 28.447 60.988 35.888 107.105-48.172 24.227-80.315 48.528-107.049 128.223l-6.623 19.743h334.652v-37.792l-40.706-41.398v-33.705h56.882c24.79 0 44.958-20.16 44.958-44.941 0-12.702-5.222-24.481-14.298-32.89l-.005-42.096h25.14zm-467.042-216.237c8.263 0 14.986 6.72 14.986 14.98s-6.723 14.98-14.986 14.98-14.986-6.72-14.986-14.98 6.723-14.98 14.986-14.98zm0 145.617c-8.263 0-14.986-6.72-14.986-14.98 0-8.261 6.723-14.98 14.986-14.98s14.986 6.72 14.986 14.98-6.723 14.98-14.986 14.98zm165.137 68.208c-18.326-37.51-16.398-78.933 5.289-113.647 22.302-35.698 61.94-57.01 106.03-57.01 32.989 0 68.186 13.666 94.437 36.271h-105.864v67.64h-3.056c-30.049 0-52.876 25.448-53.405 54.598v49.81c0 11.265-7.507 20.806-17.781 23.899-7.583-23.48-16.653-43.13-25.65-61.561zm271.933 5.431h-25.143l.004 33.305h-14.628c-5.964 0-11.52-2.662-15.243-7.304l-3.287-4.098-23.382 18.743 3.286 4.096c9.44 11.772 23.519 18.524 38.626 18.524h14.631l.003 24.519c6.435 2.88 14.296 9.681 14.296 17.162 0 8.261-6.723 14.98-14.986 14.98h-86.854v75.925l36.352 36.97h-258.1c23.439-59.019 49.728-74.219 94.408-95.924l9.736-4.729c-1.866-15.835-4.426-31.629-8.024-47.165 24.567-7.066 39.096-30.047 39.774-54.624 7.079 3.471 15.031 5.426 23.433 5.426h18.042v-29.961h-18.042c-14.353 0-22.057-12.344-23.433-24.639 0-12.916 10.512-23.423 23.433-23.423h33.028v-67.64h101.682c9.347 15.254 14.984 32.499 15.239 51.045l.002 6.519 16.411 22.488c6.17 8.453 8.9 19.426 8.736 29.805z"/></g><g/><g/><g/><g/><g/><g/><g/><g/><g/><g/><g/><g/><g/><g/><g/></svg>