<svg id="Layer_1" enable-background="new 0 0 512.2 512.2" height="512" viewBox="0 0 512.2 512.2" width="512" xmlns="http://www.w3.org/2000/svg"><g><g><path d="m256.103 429.461h-.115c-46.307-.03-89.83-18.091-122.552-50.856-32.723-32.765-50.727-76.312-50.696-122.618.062-95.529 77.83-173.249 173.358-173.249h.115c95.592.063 173.311 77.882 173.249 173.474-.063 95.531-77.831 173.249-173.359 173.249zm.09-316.722c-79.093 0-143.403 64.27-143.454 143.268-.025 38.293 14.863 74.304 41.923 101.399s63.052 42.031 101.345 42.056h.096c78.997 0 143.308-64.27 143.359-143.268.051-79.05-64.219-143.403-143.269-143.455z"/></g><g><path d="m255.929 512.2-57.671-36.401-70.355 2.004-31.744-60.359-61.933-33.442 2.688-68.145-36.913-59.928 36.4-57.671-2.005-70.356 60.36-31.744 33.441-61.933 68.146 2.69 59.928-36.915 57.671 36.401 70.355-2.004 31.744 60.359 61.933 33.442-2.688 68.145 36.913 59.928-36.4 57.671 2.005 70.356-60.359 31.743-33.442 61.934-68.145-2.69zm-49.388-66.649 49.581 31.295 51.784-31.898 58.586 2.313 28.897-53.516 51.894-27.291-1.732-60.795 31.295-49.581-31.897-51.783 2.312-58.586-53.515-28.897-27.291-51.894-60.795 1.732-49.581-31.295-51.783 31.898-58.587-2.313-28.896 53.516-51.895 27.291 1.732 60.795-31.295 49.581 31.897 51.783-2.312 58.586 53.515 28.897 27.291 51.894z"/></g><g><path d="m158.4 242.621h193.954v30h-193.954z" transform="matrix(.6 -.8 .8 .6 -103.924 307.509)"/></g><g><path d="m201.13 242.315c-21.913 0-39.741-17.828-39.741-39.741s17.828-39.741 39.741-39.741 39.74 17.828 39.74 39.741-17.827 39.741-39.74 39.741zm0-49.482c-5.371 0-9.741 4.37-9.741 9.741s4.37 9.741 9.741 9.741 9.74-4.37 9.74-9.741-4.369-9.741-9.74-9.741z"/></g><g><path d="m311.07 349.824c-21.913 0-39.74-17.828-39.74-39.74 0-21.913 17.827-39.741 39.74-39.741s39.741 17.828 39.741 39.741c.001 21.913-17.828 39.74-39.741 39.74zm0-49.481c-5.371 0-9.74 4.37-9.74 9.741s4.369 9.74 9.74 9.74 9.741-4.37 9.741-9.74c.001-5.371-4.37-9.741-9.741-9.741z"/></g></g></svg>